<?xml version="1.0" encoding="UTF-8" standalone="no"?>
<!-- Created with Inkscape (http://www.inkscape.org/) -->

<svg
   xmlns:dc="http://purl.org/dc/elements/1.1/"
   xmlns:cc="http://creativecommons.org/ns#"
   xmlns:rdf="http://www.w3.org/1999/02/22-rdf-syntax-ns#"
   xmlns:svg="http://www.w3.org/2000/svg"
   xmlns="http://www.w3.org/2000/svg"
   xmlns:sodipodi="http://sodipodi.sourceforge.net/DTD/sodipodi-0.dtd"
   xmlns:inkscape="http://www.inkscape.org/namespaces/inkscape"
   width="210mm"
   height="297mm"
   viewBox="0 0 210 297"
   version="1.1"
   id="svg50"
   inkscape:version=""
   sodipodi:docname="drawing.svg">
  <defs
     id="defs44">
    <filter
       inkscape:menu-tooltip="In and out glow with a possible offset and colorizable flood"
       inkscape:menu="Shadows and Glows"
       inkscape:label="Cutout Glow"
       style="color-interpolation-filters:sRGB;"
       id="filter74">
      <feOffset
         dy="3"
         dx="3"
         id="feOffset64" />
      <feGaussianBlur
         stdDeviation="3"
         result="blur"
         id="feGaussianBlur66" />
      <feFlood
         flood-color="rgb(0,0,0)"
         flood-opacity="1"
         result="flood"
         id="feFlood68" />
      <feComposite
         in="flood"
         in2="SourceGraphic"
         operator="in"
         result="composite"
         id="feComposite70" />
      <feBlend
         in="blur"
         in2="composite"
         mode="normal"
         id="feBlend72" />
    </filter>
  </defs>
  <sodipodi:namedview
     id="base"
     pagecolor="#ffffff"
     bordercolor="#666666"
     borderopacity="1.0"
     inkscape:pageopacity="0.0"
     inkscape:pageshadow="2"
     inkscape:zoom="0.35"
     inkscape:cx="400"
     inkscape:cy="560"
     inkscape:document-units="mm"
     inkscape:current-layer="layer1"
     showgrid="false"
     inkscape:window-width="1920"
     inkscape:window-height="1017"
     inkscape:window-x="1920"
     inkscape:window-y="27"
     inkscape:window-maximized="1" />
  <metadata
     id="metadata47">
    <rdf:RDF>
      <cc:Work
         rdf:about="">
        <dc:format>image/svg+xml</dc:format>
        <dc:type
           rdf:resource="http://purl.org/dc/dcmitype/StillImage" />
        <dc:title></dc:title>
      </cc:Work>
    </rdf:RDF>
  </metadata>
  <g
     inkscape:label="Layer 1"
     inkscape:groupmode="layer"
     id="layer1">
    <flowRoot
       xml:space="preserve"
       id="flowRoot52"
       style="fill:black;fill-opacity:1;stroke:none;font-family:'monofur for Powerline';font-style:italic;font-weight:normal;font-size:192px;line-height:1.25;letter-spacing:0px;word-spacing:0px;-inkscape-font-specification:'monofur for Powerline, Italic';font-stretch:normal;font-variant:normal;text-anchor:start;text-align:start;writing-mode:lr;font-variant-ligatures:normal;font-variant-caps:normal;font-variant-numeric:normal;"><flowRegion
         id="flowRegion54"
         style="font-size:192px;"><rect
           id="rect56"
           width="382.85715"
           height="320"
           x="185.71428"
           y="262.51968"
           style="font-size:192px;" /></flowRegion><flowPara
         id="flowPara58"></flowPara></flowRoot>    <text
       xml:space="preserve"
       style="font-style:italic;font-variant:normal;font-weight:bold;font-stretch:normal;font-size:50.79999924px;line-height:1555.5px;font-family:'Ubuntu Mono derivative Powerline';-inkscape-font-specification:'Ubuntu Mono derivative Powerline Bold Italic';font-variant-ligatures:normal;font-variant-caps:normal;font-variant-numeric:normal;text-align:start;letter-spacing:3.41841698px;word-spacing:0.7567082px;writing-mode:lr-tb;direction:ltr;text-orientation:upright;baseline-shift:baseline;text-anchor:start;fill:#6c6753;fill-opacity:1;stroke:none;stroke-width:0.26458332;filter:url(#filter74)"
       x="90.714287"
       y="108.0119"
       id="text62"><tspan
         sodipodi:role="line"
         id="tspan60"
         x="90.714287"
         y="901.39264"
         style="font-style:italic;font-variant:normal;font-weight:bold;font-stretch:normal;font-size:50.79999924px;line-height:1555.5px;font-family:'Ubuntu Mono derivative Powerline';-inkscape-font-specification:'Ubuntu Mono derivative Powerline Bold Italic';letter-spacing:3.41841698px;word-spacing:0.7567082px;writing-mode:lr-tb;direction:ltr;text-orientation:upright;baseline-shift:baseline;fill:#6c6753;stroke-width:0.26458332" /></text>
    <flowRoot
       xml:space="preserve"
       id="flowRoot95"
       style="fill:black;fill-opacity:1;stroke:none;font-family:'monofur for Powerline';font-style:italic;font-weight:normal;font-size:85.33333333px;line-height:1.25;letter-spacing:0px;word-spacing:0px;-inkscape-font-specification:'monofur for Powerline, Italic';font-stretch:normal;font-variant:normal;text-anchor:start;text-align:start;writing-mode:lr;font-variant-ligatures:normal;font-variant-caps:normal;font-variant-numeric:normal"><flowRegion
         id="flowRegion97"><rect
           id="rect99"
           width="734.28571"
           height="342.85715"
           x="168.57143"
           y="199.66254" /></flowRegion><flowPara
         id="flowPara101"></flowPara></flowRoot>    <flowRoot
       xml:space="preserve"
       id="flowRoot103"
       style="fill:black;fill-opacity:1;stroke:none;font-family:'monofur for Powerline';font-style:italic;font-weight:normal;font-size:85.33333333px;line-height:1.25;letter-spacing:0px;word-spacing:0px;-inkscape-font-specification:'monofur for Powerline, Italic';font-stretch:normal;font-variant:normal;text-anchor:start;text-align:start;writing-mode:lr;font-variant-ligatures:normal;font-variant-caps:normal;font-variant-numeric:normal"><flowRegion
         id="flowRegion105"><rect
           id="rect107"
           width="97.14286"
           height="100"
           x="220"
           y="456.80539" /></flowRegion><flowPara
         id="flowPara109"></flowPara></flowRoot>    <path
       style="fill:none;stroke:#000000;stroke-width:0.26458332px;stroke-linecap:butt;stroke-linejoin:miter;stroke-opacity:1"
       d="m 115.66071,86.845237 c -1.00793,0.251984 -2.05916,0.370094 -3.02381,0.755951 -0.33087,0.13235 -0.43721,0.596586 -0.75595,0.755955 -0.22538,0.112688 -0.50397,0 -0.75595,0 -0.50397,0 -1.02299,-0.122233 -1.51191,0 -0.54663,0.136657 -0.97736,0.57777 -1.5119,0.755951 -0.71645,0.238818 -3.06331,-0.238818 -3.77976,0 -0.53454,0.178179 -0.97737,0.577774 -1.51191,0.755952 -0.23905,0.07968 -0.5169,-0.07968 -0.75595,0 -1.37298,0.45766 -1.40293,0.64698 -2.267856,1.511906 -0.251984,0.251984 -0.459444,0.558279 -0.755954,0.755951 -0.468821,0.312547 -0.977366,0.577774 -1.511904,0.755952 -0.239053,0.07968 -0.577773,-0.178178 -0.755951,0 -0.178181,0.178181 0,0.50397 0,0.755954 0,0.930937 -0.112692,1.399212 0.755951,2.267858 0.178179,0.178178 0.577774,-0.178181 0.755952,0 0.178181,0.178178 -0.178178,0.57777 0,0.755951 7.94e-4,7.94e-4 2.264432,-0.0011 2.267862,0 0.33807,0.112692 0.43721,0.596583 0.75595,0.755952 0.39972,0.199864 2.65551,-0.09207 3.02381,0 3.65045,0.912614 -0.0375,0.359243 2.26785,1.511906 0.45077,0.22538 1.06115,-0.225383 1.51191,0 0.81262,0.40631 1.48879,1.044464 2.26786,1.511904 0.48315,0.2899 0.97736,0.57777 1.5119,0.75595 0.93846,0.31282 0.82364,-0.62057 1.51191,0.75595 0.22538,0.45077 -0.22539,1.06115 0,1.51191 0.15937,0.31874 0.50396,0.50397 0.75595,0.75595 0.25198,0.25199 0.50397,0.50397 0.75595,0.75595"
       id="path111"
       inkscape:connector-curvature="0" />
    <path
       style="fill:none;stroke:#000000;stroke-width:0.26458332px;stroke-linecap:butt;stroke-linejoin:miter;stroke-opacity:1"
       d="m 141.36309,81.55357 c -3.24919,-1.624594 -1.8969,-1.511903 -3.77976,-1.511903 -0.25198,0 -0.75595,0.251984 -0.75595,0 0,-0.251987 1.00794,0 0.75595,0 -0.75595,0 -1.5119,0 -2.26786,0 -0.25198,0 -0.75595,0.251984 -0.75595,0 0,-0.251987 1.00794,0 0.75595,0 -1.62482,0 -2.3445,-0.20089 -3.77976,0.755952 -0.29651,0.197672 -0.59658,0.437213 -0.75595,0.755951 -0.22538,0.450763 0.15937,1.033799 0,1.511906 -1.82523,5.475676 0.21794,-1.191842 -1.5119,2.267858 -0.1127,0.22538 0,0.503967 0,0.755951 0,1.511903 0,3.023809 0,4.535715 0,0.503968 0.12223,1.022983 0,1.511903 -0.19327,0.773052 -0.56269,1.494806 -0.75596,2.267858 -0.0611,0.244459 0,0.503968 0,0.755952 0,1.167571 0.17811,2.711137 0,3.779763 -0.131,0.786 -0.64326,1.479024 -0.75595,2.267854 -0.18553,1.29869 0,3.10617 0,4.53572 0,0.50396 -0.15937,1.03379 0,1.5119 0.11269,0.33807 1.00794,0.50397 0.75595,0.75595 -0.25198,0.25199 -1.11231,-0.75595 -0.75595,-0.75595 0.56345,0 0.97737,0.57777 1.51191,0.75595 0.23905,0.0797 0.50396,0 0.75595,0 1.3194,0 0.53057,0.11269 2.26786,-0.75595 0.50396,-0.25198 1.00793,-0.50397 1.5119,-0.75595 0.25198,0 0.53057,0.11269 0.75595,0 0.31874,-0.15937 0.50397,-0.50397 0.75595,-0.75595 0.50397,-0.50397 0.94174,-1.08428 1.51191,-1.51191 0.45076,-0.33807 1.04308,-0.4434 1.5119,-0.75595 0.29651,-0.19767 0.43722,-0.59658 0.75596,-0.75595 0.22538,-0.11269 0.53057,0.11269 0.75595,0 2.10492,-1.05247 2.86385,-2.1079 4.53571,-3.779764 0.25199,-0.251984 0.68607,-0.406514 0.75596,-0.755954 0.19767,-0.988362 -0.16571,-2.029587 0,-3.023809 0.0926,-0.555787 0.50396,-1.007936 0.75595,-1.511904 0,-1.007938 0,-2.015873 0,-3.023809 0,-0.251986 0,-0.50397 0,-0.755954 0,-0.503968 -0.50397,-1.511903 0,-1.511903 0.50397,0 0,2.015871 0,1.511903 0,-0.755952 0,-1.511903 0,-2.267858 0,-1.007935 0,-2.015871 0,-3.023809 0,-0.251984 0.13977,-0.546288 0,-0.755951 -0.39535,-0.593019 -1.11656,-0.918888 -1.51191,-1.511906 -0.36164,-0.542467 0.92136,-2.267855 -0.75595,-2.267855 -0.90854,0 -1.5119,1.007935 -2.26786,1.511903 z"
       id="path113"
       inkscape:connector-curvature="0" />
    <path
       style="fill:none;stroke:#000000;stroke-width:0.26458332px;stroke-linecap:butt;stroke-linejoin:miter;stroke-opacity:1"
       d="m 133.80357,106.5 c -0.50397,1.5119 -1.2499,2.96371 -1.51191,4.53571 -0.0414,0.24856 0.53058,-0.11269 0.75596,0 0.31873,0.15937 0.43721,0.59659 0.75595,0.75596 0.22538,0.11269 0.51149,-0.0611 0.75595,0 0.77305,0.19326 1.49481,0.56269 2.26786,0.75595 0.48892,0.12223 1.06114,-0.22538 1.5119,0 0.31874,0.15937 0.43722,0.59658 0.75596,0.75595 0.45076,0.22538 1.06114,-0.22538 1.5119,0 0.31874,0.15937 0.43722,0.59658 0.75595,0.75595 0.29973,0.14987 2.11332,-0.15454 2.26786,0 0.17818,0.17818 0.25198,0.75596 0,0.75596 -0.35636,0 -0.48391,-0.52577 -0.75595,-0.75596 -3.00478,-2.5425 -6.04762,-5.03968 -9.07143,-7.55952"
       id="path115"
       inkscape:connector-curvature="0" />
    <path
       style="fill:none;stroke:#000000;stroke-width:0.26458332px;stroke-linecap:butt;stroke-linejoin:miter;stroke-opacity:1"
       d="m 151.19047,114.81548 c 0.50397,-2.01588 1.1703,-3.99798 1.51191,-6.04763 0.1657,-0.99422 -0.19767,-2.03544 0,-3.0238 1.01529,-5.07646 1.07479,-3.39279 3.02381,-6.803574 0.5591,-0.978429 0.88681,-2.086168 1.5119,-3.023809 0.39535,-0.593019 1.05564,-0.96438 1.51191,-1.511906 0.42802,-0.51363 3.2888,-4.309737 3.77976,-5.291667 0.35636,-0.712718 0.46001,-1.528005 0.75595,-2.267857 0.20926,-0.523153 0.60116,-0.970129 0.75595,-1.511903 0.35299,-1.235438 0.24982,-2.59878 0.75596,-3.779764 0.28075,-0.655092 1.06667,-0.955365 1.5119,-1.511903 0.56756,-0.709454 1.06114,-1.479023 1.51191,-2.267858 1.34434,-2.352595 1.34948,-3.282476 3.02381,-5.291666 0.91254,-1.095052 2.01587,-2.015874 3.02381,-3.023809"
       id="path117"
       inkscape:connector-curvature="0" />
    <path
       style="fill:none;stroke:#000000;stroke-width:0.26458332px;stroke-linecap:butt;stroke-linejoin:miter;stroke-opacity:1"
       d="m 185.20833,86.089285 c 2.75138,0 3.73887,-0.398423 6.04762,0.755952 0.31874,0.159369 0.42508,0.623604 0.75595,0.755951 0.96465,0.385861 2.03817,0.427406 3.02381,0.755955 0.53454,0.178178 0.97737,0.57777 1.51191,0.755951 0.23905,0.07968 0.53057,-0.112691 0.75595,0 0.31874,0.159369 0.43721,0.596583 0.75595,0.755952 0.71272,0.356359 1.55514,0.399592 2.26786,0.755954 3.4597,1.729849 -3.20782,-0.313322 2.26786,1.511903 0.4781,0.15937 1.0338,-0.159369 1.5119,0 0.53454,0.178181 0.98875,0.54669 1.51191,0.755952 0.76296,0.305186 5.29166,1.41369 5.29166,2.267858 0,0.251983 -0.50397,0 -0.75595,0 -1.00794,0 -2.01587,0 -3.02381,0 -3.39196,0 0.41086,-0.225381 -3.02381,0.755954 -1.23543,0.35298 -2.53325,0.444322 -3.77976,0.755951 -2.22463,0.556155 -3.12819,1.186117 -5.29167,2.267858 -1.00794,0.503968 -2.01587,1.007935 -3.02381,1.511904 -1.00793,0.50397 -2.06819,0.91465 -3.02381,1.5119 -1.06841,0.66776 -2.03997,1.4808 -3.02381,2.26786 -0.27827,0.22262 -0.41788,0.64326 -0.75595,0.75595 -0.47811,0.15937 -1.01772,-0.0988 -1.5119,0 -2.17161,0.43433 -1.89864,0.38674 -3.02381,1.51191"
       id="path119"
       inkscape:connector-curvature="0" />
  </g>
</svg>
